<?xml version="1.0" encoding="UTF-8"?>
<svg xmlns="http://www.w3.org/2000/svg" xmlns:xlink="http://www.w3.org/1999/xlink" width="16px" height="16px" viewBox="0 0 16 16" version="1.1">
<g id="surface1">
<path style=" stroke:none;fill-rule:evenodd;fill:rgb(97.647059%,0.392157%,94.117647%);fill-opacity:1;" d="M 9.601562 1.304688 C 9.601562 1.585938 9.429688 1.835938 9.171875 1.941406 C 8.914062 2.046875 8.613281 1.988281 8.417969 1.789062 C 8.222656 1.585938 8.167969 1.289062 8.277344 1.03125 C 8.386719 0.773438 8.644531 0.609375 8.921875 0.617188 C 9.300781 0.621094 9.601562 0.929688 9.601562 1.304688 Z M 7.078125 3.863281 C 7.585938 3.863281 8 3.453125 8 2.941406 C 8 2.433594 7.585938 2.019531 7.078125 2.019531 C 6.566406 2.019531 6.152344 2.433594 6.152344 2.941406 C 6.152344 3.453125 6.566406 3.863281 7.078125 3.863281 Z M 13.058594 13.402344 L 9.980469 8.675781 L 9.980469 6.152344 C 10.175781 6.179688 10.371094 6.113281 10.511719 5.980469 C 10.65625 5.847656 10.730469 5.660156 10.71875 5.464844 C 10.734375 5.300781 10.679688 5.140625 10.574219 5.015625 C 10.46875 4.890625 10.316406 4.8125 10.152344 4.800781 L 5.90625 4.800781 C 5.566406 4.800781 5.292969 5.074219 5.292969 5.414062 C 5.289062 5.441406 5.289062 5.464844 5.292969 5.492188 C 5.285156 5.6875 5.359375 5.875 5.503906 6.007812 C 5.644531 6.140625 5.835938 6.203125 6.03125 6.179688 L 6.03125 8.738281 L 2.953125 13.414062 C 2.699219 13.804688 2.671875 14.304688 2.878906 14.71875 C 3.085938 15.128906 3.503906 15.386719 3.964844 15.382812 L 12 15.382812 C 12.457031 15.386719 12.878906 15.128906 13.082031 14.71875 C 13.316406 14.3125 13.296875 13.804688 13.035156 13.414062 Z M 7.273438 9.09375 L 7.273438 6.277344 L 8.75 6.277344 L 8.75 9.132812 L 10.203125 11.445312 L 5.808594 11.445312 Z M 7.273438 9.09375 "/>
</g>
</svg>
