<?xml version="1.0" encoding="UTF-8"?>
<svg xmlns="http://www.w3.org/2000/svg" xmlns:xlink="http://www.w3.org/1999/xlink" width="16px" height="16px" viewBox="0 0 16 16" version="1.1">
<g id="surface1">
<path style=" stroke:none;fill-rule:evenodd;fill:rgb(5.490196%,96.078431%,3.921569%);fill-opacity:1;" d="M 1.332031 3.890625 C 1.332031 3.089844 1.980469 2.445312 2.777344 2.445312 L 13.222656 2.445312 C 14.019531 2.445312 14.667969 3.089844 14.667969 3.890625 L 14.667969 4.332031 C 14.667969 5.132812 14.019531 5.777344 13.222656 5.777344 L 13 5.777344 L 13 11.667969 C 13 12.40625 12.40625 13 11.667969 13 L 4.332031 13 C 3.59375 13 3 12.40625 3 11.667969 L 3 5.777344 L 2.777344 5.777344 C 1.980469 5.777344 1.332031 5.132812 1.332031 4.332031 Z M 2.777344 3.554688 C 2.59375 3.554688 2.445312 3.703125 2.445312 3.890625 L 2.445312 4.332031 C 2.445312 4.515625 2.59375 4.667969 2.777344 4.667969 L 13.222656 4.667969 C 13.40625 4.667969 13.554688 4.515625 13.554688 4.332031 L 13.554688 3.890625 C 13.554688 3.703125 13.40625 3.554688 13.222656 3.554688 Z M 5.777344 6.890625 C 5.472656 6.890625 5.222656 7.136719 5.222656 7.445312 C 5.222656 7.75 5.472656 8 5.777344 8 L 10.222656 8 C 10.527344 8 10.777344 7.75 10.777344 7.445312 C 10.777344 7.136719 10.527344 6.890625 10.222656 6.890625 Z M 5.777344 6.890625 "/>
</g>
</svg>
