<?xml version="1.0" encoding="UTF-8"?>
<svg xmlns="http://www.w3.org/2000/svg" xmlns:xlink="http://www.w3.org/1999/xlink" width="16px" height="16px" viewBox="0 0 16 16" version="1.1">
<g id="surface1">
<path style=" stroke:none;fill-rule:nonzero;fill:rgb(100%,96.862745%,0%);fill-opacity:1;" d="M 4.660156 9.667969 C 4.292969 9.667969 3.996094 9.964844 3.996094 10.335938 L 3.996094 11.523438 C 3.136719 10.550781 2.660156 9.296875 2.660156 8 C 2.660156 7.804688 2.671875 7.609375 2.695312 7.414062 C 2.726562 7.179688 2.625 6.945312 2.433594 6.800781 C 2.246094 6.65625 1.992188 6.625 1.773438 6.71875 C 1.554688 6.8125 1.402344 7.019531 1.371094 7.253906 C 1.34375 7.503906 1.328125 7.75 1.328125 8 C 1.328125 9.59375 1.902344 11.128906 2.9375 12.335938 L 1.996094 12.335938 C 1.625 12.335938 1.328125 12.632812 1.328125 13 C 1.328125 13.371094 1.625 13.667969 1.996094 13.667969 L 4.660156 13.667969 C 4.871094 13.664062 5.070312 13.5625 5.191406 13.386719 C 5.199219 13.375 5.207031 13.367188 5.214844 13.359375 C 5.21875 13.351562 5.21875 13.34375 5.222656 13.335938 C 5.257812 13.285156 5.28125 13.226562 5.292969 13.164062 C 5.304688 13.128906 5.3125 13.097656 5.316406 13.0625 C 5.316406 13.039062 5.328125 13.023438 5.328125 13 L 5.328125 10.335938 C 5.328125 9.964844 5.03125 9.667969 4.660156 9.667969 Z M 5.660156 4 L 4.472656 4 C 5.445312 3.140625 6.695312 2.667969 7.996094 2.667969 C 8.191406 2.667969 8.386719 2.679688 8.582031 2.703125 C 8.945312 2.746094 9.277344 2.488281 9.324219 2.121094 C 9.367188 1.753906 9.105469 1.421875 8.742188 1.378906 C 8.492188 1.347656 8.246094 1.335938 7.996094 1.335938 C 6.402344 1.335938 4.867188 1.90625 3.660156 2.945312 L 3.660156 2 C 3.660156 1.632812 3.363281 1.335938 2.996094 1.335938 C 2.625 1.335938 2.328125 1.632812 2.328125 2 L 2.328125 4.667969 C 2.332031 4.710938 2.339844 4.753906 2.355469 4.796875 C 2.371094 4.878906 2.402344 4.957031 2.449219 5.027344 L 2.457031 5.039062 C 2.5 5.105469 2.554688 5.160156 2.617188 5.203125 C 2.625 5.210938 2.628906 5.21875 2.636719 5.222656 C 2.648438 5.230469 2.65625 5.230469 2.667969 5.238281 C 2.707031 5.257812 2.746094 5.277344 2.785156 5.292969 C 2.84375 5.3125 2.902344 5.324219 2.960938 5.328125 C 2.972656 5.328125 2.984375 5.335938 2.996094 5.335938 L 5.660156 5.335938 C 6.03125 5.335938 6.328125 5.035156 6.328125 4.667969 C 6.328125 4.300781 6.03125 4 5.660156 4 Z M 13.636719 11.203125 C 13.617188 11.121094 13.585938 11.042969 13.539062 10.972656 L 13.53125 10.960938 C 13.488281 10.898438 13.433594 10.84375 13.371094 10.796875 C 13.363281 10.792969 13.359375 10.785156 13.351562 10.78125 C 13.34375 10.773438 13.335938 10.773438 13.328125 10.769531 C 13.242188 10.722656 13.152344 10.691406 13.054688 10.679688 C 13.035156 10.679688 13.015625 10.667969 12.996094 10.667969 L 10.328125 10.667969 C 9.960938 10.667969 9.660156 10.964844 9.660156 11.335938 C 9.660156 11.703125 9.960938 12 10.328125 12 L 11.515625 12 C 10.542969 12.859375 9.292969 13.335938 7.996094 13.335938 C 7.796875 13.335938 7.601562 13.324219 7.40625 13.296875 C 7.042969 13.253906 6.710938 13.515625 6.664062 13.878906 C 6.621094 14.246094 6.882812 14.578125 7.246094 14.621094 C 7.496094 14.652344 7.746094 14.667969 7.996094 14.667969 C 9.585938 14.667969 11.121094 14.09375 12.328125 13.058594 L 12.328125 14 C 12.328125 14.371094 12.625 14.667969 12.996094 14.667969 C 13.363281 14.667969 13.660156 14.371094 13.660156 14 L 13.660156 11.335938 C 13.65625 11.289062 13.648438 11.246094 13.636719 11.203125 Z M 13.996094 3.667969 C 14.363281 3.667969 14.660156 3.371094 14.660156 3 C 14.660156 2.632812 14.363281 2.335938 13.996094 2.335938 L 11.328125 2.335938 C 11.285156 2.339844 11.242188 2.347656 11.199219 2.359375 L 11.195312 2.363281 C 11.113281 2.378906 11.039062 2.410156 10.96875 2.453125 L 10.957031 2.464844 C 10.890625 2.507812 10.835938 2.5625 10.792969 2.625 C 10.785156 2.632812 10.777344 2.636719 10.773438 2.644531 C 10.769531 2.652344 10.769531 2.660156 10.765625 2.667969 C 10.714844 2.75 10.6875 2.84375 10.671875 2.941406 C 10.671875 2.960938 10.660156 2.980469 10.660156 3 L 10.660156 5.667969 C 10.660156 6.035156 10.960938 6.335938 11.328125 6.335938 C 11.695312 6.335938 11.996094 6.035156 11.996094 5.667969 L 11.996094 4.480469 C 12.855469 5.453125 13.328125 6.703125 13.328125 8 C 13.328125 8.199219 13.316406 8.394531 13.292969 8.589844 C 13.25 8.953125 13.507812 9.285156 13.875 9.332031 C 13.902344 9.332031 13.929688 9.335938 13.957031 9.335938 C 14.292969 9.335938 14.574219 9.082031 14.617188 8.746094 C 14.644531 8.5 14.660156 8.25 14.660156 8 C 14.660156 6.410156 14.089844 4.871094 13.050781 3.667969 Z M 13.996094 3.667969 "/>
</g>
</svg>
